# xmcd
#
# Track frame offsets:
#	150
#	21155
#	38420
#	55342
#	74802
#	92754
#	114808
#	133259
#	148929
#	166252
#	188146
#	202836
#	218555
#	240111
#	262486
#	280921
#	301653
#	316382
#
# Disc length: 4450 seconds
#
# Revision: 1
# Processed by: cddbd v1.5PL3 Copyright (c) Steve Scherf et al.
# Submitted via: CDex 1.50Beta5
#
DISCID=02116012
DTITLE=A Woman's Touch 2 - A Woman's Touch 2
DYEAR=2003
DGENRE=Pop -> General Pop
TTITLE0=Ms Dynamite-It Takes More
TTITLE1=Ashanti-Foolish
TTITLE2=Christina Milan-When You Look At Me
TTITLE3=Destiny Child-Nasty Girl
TTITLE4=Vanessa Carlton-A Thousand Miles
TTITLE5=Sheryl Crow-Soak Up The Sun
TTITLE6=Jennifer Lopez-Aint It Funny
TTITLE7=The Corrs-Breathless
TTITLE8=Sophie Ellis Bextor-Murder In The Dance Floor
TTITLE9=Paulina Rubio-Dont Say Goodbye
TTITLE10=Sugababes-Freak Like Me
TTITLE11=Anastacia-One Day In Our Life
TTITLE12=Macy Gray- Sexual Revolution
TTITLE13=India Arie-Brown Skin
TTITLE14=Kate WInslet-What If
TTITLE15=Celine Dion-Because You Love Me
TTITLE16=Atomic Kitten-Eternal Flame
TTITLE17=Britney Spears-I'm Not A Girl, Not Yet A Women
EXTD=
EXTT0=
EXTT1=
EXTT2=
EXTT3=
EXTT4=
EXTT5=
EXTT6=
EXTT7=
EXTT8=
EXTT9=
EXTT10=
EXTT11=
EXTT12=
EXTT13=
EXTT14=
EXTT15=
EXTT16=
EXTT17=
PLAYORDER=
